<mxfile host="app.diagrams.net" modified="2024-03-30T11:19:24.227Z" agent="Mozilla/5.0 (Macintosh; Intel Mac OS X 10_15_7) AppleWebKit/537.36 (KHTML, like Gecko) Chrome/123.0.0.0 Safari/537.36" version="22.1.18" etag="l3mzJzGRZVgTxOU8e80K" type="github">
  <diagram name="Page-1" id="XN7rc-SVlKYPjvb32eW9">
    <mxGraphModel>
      <root>
        <mxCell id="0" />
        <mxCell id="1" parent="0" />
      </root>
    </mxGraphModel>
  </diagram>
</mxfile>
